<svg id="Camada_1" data-name="Camada 1" xmlns="http://www.w3.org/2000/svg" viewBox="0 0 399.26 338.28"><defs><style>.cls-1{fill:#fdc400;}.cls-2,.cls-5{fill:#3b3735;}.cls-3{fill:#0481c0;}.cls-4{fill:#ee7701;}.cls-5{font-size:65.26px;font-family:Hero-Bold, Hero;font-weight:700;}.cls-6{letter-spacing:-0.03em;}</style></defs><title>EMOFRAME</title><rect class="cls-1" width="165.87" height="165.87" rx="43.52"/><ellipse class="cls-2" cx="46.96" cy="65.69" rx="7.19" ry="12.13"/><ellipse class="cls-2" cx="118.91" cy="65.69" rx="7.19" ry="12.13"/><path class="cls-2" d="M215.41,210.8a8.76,8.76,0,0,1,7.83,12.68c-5.47,11-17.83,18.67-32.2,18.67s-26.73-7.67-32.2-18.67a8.77,8.77,0,0,1,7.84-12.68Z" transform="translate(-107.77 -117.6)"/><rect class="cls-3" y="172.41" width="165.87" height="165.87" rx="44.02"/><circle class="cls-2" cx="50.32" cy="250.97" r="9.32"/><circle class="cls-2" cx="115.55" cy="250.97" r="9.32"/><path class="cls-2" d="M243.28,401.4H138.13a2.22,2.22,0,1,1,0-4.43H243.28a2.22,2.22,0,1,1,0,4.43Z" transform="translate(-107.77 -117.6)"/><rect class="cls-4" x="172.29" width="165.87" height="165.87" rx="43.52"/><path class="cls-2" d="M387.42,236.74a1.9,1.9,0,0,0,2.52-2.08c-1.7-11.91-13.12-21.11-26.94-21.11s-25.24,9.2-26.94,21.1a1.89,1.89,0,0,0,2.52,2.07l13-4.81a32.63,32.63,0,0,1,22.51,0Z" transform="translate(-107.77 -117.6)"/><ellipse class="cls-2" cx="227.66" cy="73.58" rx="5.55" ry="9.36"/><ellipse class="cls-2" cx="283.17" cy="73.58" rx="5.55" ry="9.36"/><path class="cls-2" d="M341.73,184.38c-3.34-2.55-11.23-7.24-24.08-7.26a2,2,0,0,1-1.64-.85c-.67-1-1.26-2.69,1-4a16.85,16.85,0,0,1,13.72-.86s8.2,4.1,11.5,9.36a2.39,2.39,0,0,1,.31.76l.47,2A.81.81,0,0,1,341.73,184.38Z" transform="translate(-107.77 -117.6)"/><path class="cls-2" d="M384.26,184.38c3.34-2.55,11.23-7.24,24.08-7.26a2,2,0,0,0,1.65-.85c.66-1,1.25-2.69-1-4a16.86,16.86,0,0,0-13.72-.86s-8.21,4.1-11.51,9.36a3,3,0,0,0-.31.76l-.47,2A.81.81,0,0,0,384.26,184.38Z" transform="translate(-107.77 -117.6)"/><text class="cls-5" transform="translate(178.7 247.78)">EMO<tspan class="cls-6" x="0" y="51.98">F</tspan><tspan x="38.17" y="51.98">RAME</tspan></text></svg>